<svg xmlns="http://www.w3.org/2000/svg" xmlns:xlink="http://www.w3.org/1999/xlink" width="93" height="93" viewBox="0 0 93 93">
  <defs>
    <clipPath id="clip-path">
      <rect id="Rectangle_112" data-name="Rectangle 112" width="52.1" height="36.603" fill="#fff"/>
    </clipPath>
  </defs>
  <g id="Group_112" data-name="Group 112" transform="translate(-902 -4851)">
    <circle id="Ellipse_7" data-name="Ellipse 7" cx="46.5" cy="46.5" r="46.5" transform="translate(902 4851)"/>
    <g id="Group_52" data-name="Group 52" transform="translate(922.45 4879.198)">
      <g id="Group_51" data-name="Group 51" transform="translate(0 0)" clip-path="url(#clip-path)">
        <path id="Path_13772" data-name="Path 13772" d="M1.237,27.89C-.724,27.869.057,27.777.8,26.5a21.415,21.415,0,0,0,2.338-5.251C5.108,14.229,9.419,1.585,18.95,3.7c2.234.5,3.115,1.067,5.136-.4C25.75,2.086,26.691.629,28.839.165,33.351-.808,37.313,2.723,40.4,5.452c3.127,2.764,6.266,5.634,10.227,7.046.937.334,2.139-.318,1.022.871-.347.369-.875.419-1.262.7-3.342,1.688-7.745,1.586-11.23.45.519-.918,3.906-2.9,3.625-4.154-.271-1.21-1.155.668-1.572,1.192-1.413,1.774-2.03,2.619-4.067,2.358-1.546-.2-3.142-.819-4.71-1.071.1-.436.609-5,.039-4.192-1.118,1.593.8,4.068-1.767,4.287.062-.7.256-6.061-.465-4.917-.605.96.5,3.237-.1,4.4-.519,1.01-1.285,1.287-2.586,1.865.063-.651.22-10.2-1.534-9.727.089-.024,1.15,6.772,1.125,7.516-.032.954.056,2.116-.58,2.757-.985.993-3.787.741-5,.757-1.279.016-2.031.189-2.919-.586-1.095-.955-1.156-3.038-2.157-3.939-.264-.238-.547-1.266-.732-.273-.245,1.312,2.014,3.986,2.678,5.01-2.054,1.566-4.063-5.291-5.157-4.624-.831.507,3.395,4.844,3.855,5.335-1.036,1.108-2.48,3.383-3.825,3.842-.873.3-5.543-1.653-5.747-1.28-.543.991,5.149,1.873,5.5,1.921-1.436,2.938-8.642,6.934-11.818,6.9M45.615,17.55c-3.454,1.9-6.737,1.788-10.525,2.327.661.62,5.4,5.329,2.6,3.3-1.127-.82-2.051-2.874-3.562-3.095-1.26-.183-3.566,1.4-4.491,2.076.367.4,3.117,2.875,2.5,3.352-.549.423-4.552-5.869-3.42-1.376.142.562,2.817,5.95,2,6.116-1.066.216-1.936-6.74-3.095-7.014-2.676-.635.712,4.345-.391,4.637-.825.218-.889-3.838-1.367-4.215a11.367,11.367,0,0,0-4.464.014c-.906.565.181,2.929-.691,3.417-.664.372-.236-3.1-.226-3.243-3.779-.574-2.234,5.785-3.195,7.322-.852,1.364.173-6.012.537-6.579-5.926,1.62-10.031,5.4-16.314,4.5,1.825.782,5.077,3.37,6,3.868,4.791,2.6,5.661,2.851,10.253,3.442,7.293.937,16.474-1.3,22.335-5.9,3.428-2.69,4.1-3.86,6.792-7.5.562-.758,5.265-8.395,5.151-8.525-.844-.958-5.5,2.569-6.422,3.077" transform="translate(0 0)" fill="#fff"/>
      </g>
    </g>
  </g>
</svg>
