<svg xmlns="http://www.w3.org/2000/svg" width="21.808" height="21.808" viewBox="0 0 21.808 21.808">
  <path id="Icon_awesome-pause" data-name="Icon awesome-pause" d="M7.01,23.987H2.337A2.337,2.337,0,0,1,0,21.651V4.516A2.337,2.337,0,0,1,2.337,2.18H7.01A2.337,2.337,0,0,1,9.346,4.516V21.651A2.337,2.337,0,0,1,7.01,23.987Zm14.8-2.337V4.516A2.337,2.337,0,0,0,19.471,2.18H14.8a2.337,2.337,0,0,0-2.337,2.337V21.651A2.337,2.337,0,0,0,14.8,23.987h4.673A2.337,2.337,0,0,0,21.808,21.651Z" transform="translate(0 -2.18)" fill="#fff"/>
</svg>
